# xmcd
#
# Track frame offsets:
# 150
# 14032
# 25670
# 39351
# 54677
# 69395
# 80372
# 91012
# 102610
# 113693
# 132072
# 146810
# 157992
# 172381
#
# Disc length: 2474 seconds
#
#
# Revision: 0
# Processed by: cddbd v1.5.2PL0 Copyright (c) Steve Scherf et al.
# Submitted via: FreeRIP 2.951 
#
DISCID=b809a80e
DTITLE=Ella Fitzgerald - It's Only A PAper Moon (Platinum Collection CD2)
DYEAR=2005
DGENRE=R&B
TTITLE0=It's Foxy (Bishop/Webb)
TTITLE1=Sing Me A Swing Song (Carmichael/Adams)
TTITLE2=Coochi Coochi Coo (Werner/Werner)
TTITLE3=I Got A Guy (Sunshine)
TTITLE4=Dipsy Doodle (Clinton)
TTITLE5=Deedle-De-Dum (Fitzerald/Kahn/Wynn/Wathers)
TTITLE6=Didja Mean It (Dixon/Greer)
TTITLE7=It's Only A Paper Monn (Arlen/Harburg/Rose)
TTITLE8=Happy Talk (Rodgers/Hammerstein)
TTITLE9=Hallelujah (Yunans/Robin/Grey)
TTITLE10=How High The Moon (Hamilton/Lewis)
TTITLE11=Flying Home (Robins/Hampton/Goodman)
TTITLE12=Holiday In Harlem (Reed/Webb)
TTITLE13=Gulf Coat Blues (Williams)
EXTD=
EXTT0=
EXTT1=
EXTT2=
EXTT3=
EXTT4=
EXTT5=
EXTT6=
EXTT7=
EXTT8=
EXTT9=
EXTT10=
EXTT11=
EXTT12=
EXTT13=
PLAYORDER=
